# xmcd CD database file
#
# Track frame offsets:
#	150
#	28824
#	60079
#	83716
#	148400
#	175448
#	211062
#	225475
#
# Disc length: 3291 seconds
#
# Revision: 1
# Processed by: cddbd v1.5.1PL0 Copyright (c) Steve Scherf et al.
# Submitted via: CDex 1.51
#
DISCID=650cd908
DTITLE=Oliver Shanti and Friends - Buddha and Bonsai Vol.5
DYEAR=2005
DGENRE=New Age
TTITLE0=Wheel Of Balance
TTITLE1=Memories Of Buddha's Love
TTITLE2=Blossoms In The Wins
TTITLE3=Infinite Compassion
TTITLE4=Mystic Passage
TTITLE5=Dew Drops Of Light
TTITLE6=Expectations
TTITLE7=After The Rain
EXTD=YEAR: 2005
EXTT0=
EXTT1=
EXTT2=
EXTT3=
EXTT4=
EXTT5=
EXTT6=
EXTT7=
PLAYORDER=
